/* XPM */
static char * wall4_xpm[] = {
"64 64 183 2",
"  	c #000000",
". 	c #060202",
"+ 	c #030101",
"@ 	c #080202",
"# 	c #100404",
"$ 	c #160505",
"% 	c #110404",
"& 	c #2E0B0B",
"* 	c #5C1717",
"= 	c #842121",
"- 	c #8A2222",
"; 	c #AD2B2B",
"> 	c #B92E2E",
", 	c #621818",
"' 	c #1D0707",
") 	c #721C1C",
"! 	c #5B1717",
"~ 	c #521414",
"{ 	c #230909",
"] 	c #050101",
"^ 	c #581616",
"/ 	c #962525",
"( 	c #471212",
"_ 	c #1E0707",
": 	c #A32828",
"< 	c #8B2222",
"[ 	c #802020",
"} 	c #5E1717",
"| 	c #571616",
"1 	c #2F0C0C",
"2 	c #290A0A",
"3 	c #401010",
"4 	c #5D1717",
"5 	c #3A0E0E",
"6 	c #0F0404",
"7 	c #B82E2E",
"8 	c #B72D2D",
"9 	c #B62D2D",
"0 	c #B52D2D",
"a 	c #B42D2D",
"b 	c #441111",
"c 	c #551515",
"d 	c #B02C2C",
"e 	c #B32C2C",
"f 	c #020000",
"g 	c #BB2F2F",
"h 	c #A82A2A",
"i 	c #BA2E2E",
"j 	c #651919",
"k 	c #0C0303",
"l 	c #761D1D",
"m 	c #AC2B2B",
"n 	c #A62929",
"o 	c #AB2A2A",
"p 	c #A92A2A",
"q 	c #AF2B2B",
"r 	c #AE2B2B",
"s 	c #B22C2C",
"t 	c #6F1B1B",
"u 	c #220808",
"v 	c #8C2323",
"w 	c #0B0303",
"x 	c #7F2020",
"y 	c #A22828",
"z 	c #A52929",
"A 	c #9D2727",
"B 	c #B12C2C",
"C 	c #5A1616",
"D 	c #7C1F1F",
"E 	c #A42929",
"F 	c #A72A2A",
"G 	c #AA2A2A",
"H 	c #912424",
"I 	c #591616",
"J 	c #451111",
"K 	c #150505",
"L 	c #130505",
"M 	c #741D1D",
"N 	c #9F2828",
"O 	c #A12828",
"P 	c #7D1F1F",
"Q 	c #731D1D",
"R 	c #501414",
"S 	c #481212",
"T 	c #2A0A0A",
"U 	c #250909",
"V 	c #240909",
"W 	c #751D1D",
"X 	c #9C2727",
"Y 	c #9F2727",
"Z 	c #9E2727",
"` 	c #9A2626",
" .	c #9B2727",
"..	c #992626",
"+.	c #982626",
"@.	c #711C1C",
"#.	c #611818",
"$.	c #4D1313",
"%.	c #350D0D",
"&.	c #260A0A",
"*.	c #200808",
"=.	c #431111",
"-.	c #A02828",
";.	c #0A0303",
">.	c #180606",
",.	c #6A1A1A",
"'.	c #972525",
").	c #952525",
"!.	c #4E1313",
"~.	c #040101",
"{.	c #932525",
"].	c #942525",
"^.	c #4A1212",
"/.	c #922424",
"(.	c #8E2323",
"_.	c #902424",
":.	c #882222",
"<.	c #280A0A",
"[.	c #8F2323",
"}.	c #8D2323",
"|.	c #8B2323",
"1.	c #4B1313",
"2.	c #892222",
"3.	c #701C1C",
"4.	c #210808",
"5.	c #852121",
"6.	c #872222",
"7.	c #862121",
"8.	c #6B1B1B",
"9.	c #791E1E",
"0.	c #822020",
"a.	c #411010",
"b.	c #1E0808",
"c.	c #641919",
"d.	c #421010",
"e.	c #661919",
"f.	c #4F1414",
"g.	c #360D0D",
"h.	c #380E0E",
"i.	c #6E1B1B",
"j.	c #070202",
"k.	c #010000",
"l.	c #140505",
"m.	c #771E1E",
"n.	c #832020",
"o.	c #2D0B0B",
"p.	c #3F1010",
"q.	c #170606",
"r.	c #6C1B1B",
"s.	c #1A0606",
"t.	c #0D0303",
"u.	c #7B1F1F",
"v.	c #1B0707",
"w.	c #691A1A",
"x.	c #3D0F0F",
"y.	c #7A1E1E",
"z.	c #671A1A",
"A.	c #370E0E",
"B.	c #120505",
"C.	c #781E1E",
"D.	c #0E0303",
"E.	c #631919",
"F.	c #601818",
"G.	c #461111",
"H.	c #7E1F1F",
"I.	c #0A0202",
"J.	c #812020",
"K.	c #090202",
"L.	c #190606",
"M.	c #5F1818",
"N.	c #330D0D",
"O.	c #2C0B0B",
"P.	c #320C0C",
"Q.	c #300C0C",
"R.	c #3B0F0F",
"S.	c #270A0A",
"T.	c #340D0D",
"U.	c #681A1A",
"V.	c #4C1313",
"W.	c #3C0F0F",
"X.	c #2B0B0B",
"Y.	c #511414",
"Z.	c #531515",
"                                .                                                               +                               ",
"@                                                           + # .                                                               ",
"$   % & * * = - ; > ; - ,       ' ) ! * ~ & & {                 ]   ^ / (       _ : < [ } | 1 1     2 1 1 1 1 1 3 4 * 4 4 4 5   ",
"6   ! 7 7 7 7 7 8 8 9 0 a b   c d 8 8 7 a 0 e e a 7 9 0 8 8 d   f   & > g h 4 %   | i i i > > > > > > > > > > > 7 7 9 9 9 9 j   ",
"k   l ; ; m m m ; ; ; m m n < ; o o p m ; ; ; q q q r q q q s       ] 9 a 0 a ; t u v a a a a 8 0 9 0 9 9 9 9 7 9 9 7 7 7 7 *   ",
"w   x ; m m ; ; m r r q d q ; ; q q q q q r ; ; r r r r q q y   + .   z d q r r ; ; A r ; r ; r r q q q q ; ; ; ; m m B s a C   ",
"#   D z E : z z E E : z z : n n n F n F F h h G G o o H D I J   K   % ; ; ; ; ; ; ; o G G p h h p p F h h p p p p p h F n F 5   ",
"L   M y E E E : y E E z : N N N O : O O P Q R S T K             '   U y : : E E E E E E n n z n n E z n n n z n n z h n F n V   ",
"K   W X A Y Z Z Z Y Z A `  . .......+.= @.) #.$.$.%.&.&.6       *.  =.z E : E E E E n z y y O -.O O N O O -.O O y -.-.Y A N ;.  ",
">.  ,./ '.'.'.'.+.+.+.+.+...` )./ / +.+.'...`  .X  ...`  . .L   '   !.X ..+.+.+.+.....+.'.+...+.+.+./ / '.'.'.'.'.'.'.+.+.` ~.  ",
"$   c  .X ..` ..` ......+.'./ '.+.+.)./ {.{./ '.).].'./ ].H &   >.  ^.).).'.+.+.+./ / '.'.'.+.'.+... . .+.+./ / './ ]./././.&.  ",
"#   5 H H H H H H H H H /./././.{.{././././././.{.H H /././.~   #   ( (./._.H {./.:.{././.].].].).).].].{./ / ].{./././././.~   ",
"]   <.[.[.[.[.[._.[.[.[.[.[.(.}.}.|.v v v v (.(.v (.(.}.(.[.)   .   ~ _./._.}.(.1.$._.< 2.< - - (.< _._.v v v v v |.< v |.< 3.  ",
"    4.5.2.:.6.5.6.:.6.6.6.7.7.= 6.6.7.7.6.7.6.H 7.:.v H /.|.[   +   ^ < |.|.8._   l 6.:.6.7.2.6.6.:.2.|.|.< |.|.|.[.2.< |.(.|.  ",
"    { |.|.- - :.6.:.:.:.:.5.6.6.7.6.6.6.6.6.6.7.6.:.:.5.v }.9.  f   , :.0.a.    b.|.}.}.}.(.}.|.|.|.< |.v < < v |.|.|.|.< }.}.  ",
"    u 6.= [ c.c.! d.d.d.d.d.d.d.=.=.=.=.=.S e.c.f.d.=.g.4.4.'       $ u %       u b =.b b =.=.b b b b b h.u u u u 3 =.c e.i.=   ",
"    j.                                                                    +                                                     ",
"            k.] . ;.;..                   k.w l.# ;.;.w w                                       w                               ",
"& & '                               J c <.    @                   . & & ~ * e.:.2.m.! ! * 5 w   K   ' '           & & & & & & & ",
"a 9 9 9 9 9 E 2.- :.6.{.8 8 G   k.  6.9 9 n.'     , - < H i i i > > > i g i i i i i > > > > o.  K   3.8 v J .     <.: 9 8 9 a 0 ",
"9 9 0 0 0 0 a a a a a a a a :.  +   0.q q r p 4 !.d B d d r q r d q r r r r d r r B B B a 8 p.  q.  3.a a e F r.%   w P 8 8 9 9 ",
"p p G G h h h p G G G o G G c.  j.  P G h o o G o p p h F F F p o o p p p p G p p G G p ; ; 3   s.  ,.G p h h h X p.    b O p G ",
"n z n n F p G p p h F p G G c   t.  u.n n n z E : : E F p p p p m o p p p p p p o p p h p h %.  v.  w.p F G o G G G t ;.  *.(.F ",
"z n z z n n n n E E E n n n x.  %   y.F h n E E -.: E : y y O N N z O O O O O O O y : : E z 2   s.  c.O O n -.O -.-.: /.&   ] z.",
"A.].A Y Y Z Y Y Y Y Y Y O y 2   B.  C.-.O -.: n n O O O -.N -.Y N -.-.N N N -.-.N X A Z Z Y {   %   C.O ..A A A A N N Y N C ]   ",
"  t Z Y -.N y -.-.N N n Z A A.  D.  @.Z X ` N N  . .N Z Z ......` A A Z ` +.+.........'.'.).L   s.  E.+.+.'.'.'.N N +.+.....[ u ",
"F././././././.{././././.'.'.(   B.  G.]./ ).A A A +./ ]./ ].{.].].{.).).{.].].{./.{.).).).).U   b.  G.{././.'././././././././.}.",
"- - < v |.< v }.|.|.|.- (.[.c   K   >.).).).'.+.+.+.+.` ..` ` A Y Z ..+.+.+. .X H.3.0.'./ +.S   >.  o.v |.v |.v v |./.< |.|.|.|.",
"2.H /.|.}.< |.v /._._.].H /.8.  # +   n._.H /./././.{.{.{.].].{./.{.{.{./.H /./.:.o.    ~.U >.  %   K < < - - 2.2.2.< |.- - 2.2.",
"2.:.:.- :.:.6.2.2.:.- 2.6.6.l   ;.~.  7./.|.}.}.|.2.< - |.|.|.v |.v 2.- 2.2.< :.2.2.~ ~.        D.    :.:.:.- 2.2.2.2.- 2.- 2.2.",
"6.6.5.7.5.5.- - < - 2.:.:.:.e.  l.    7.5.6.6.5.5.5.7.7.7.7.5.5.5.= 5.5.7.(.6.:.- - 2.) K     I.V     |.- - 2.2.2.5.5.6.6.6.6.6.",
"= 5.5.= 6.6.6.6.7.5.5.5.5.6.!   q.    4.T d.( c.e.J.c.c.=.=.U u K.L.4.p.d.F., H.= z.E.!.p.K.    s.    4.4.4.4.4.U d.d.d.M.E., u.",
"                                '                                                               k                               ",
"                                          + K.] k.                                                                              ",
"_     - 2.= * * * 1 1 1 1 1 %                           1.* H.  k.      w & & & & & & 1 1 & & & & & 3 ! ! m.2.2.:.:.:.:.:.:.p.  ",
"N.    7 7 > > > 7 > > 7 > i 7 i i i i i > n - ,     2 / > i >       * q q d d d d q q q d d B s s s s s e a a a a 0 0 8 8 0 b   ",
"a.    9 0 9 0 0 a a a 0 9 9 a a a a a a a a n q.w 4 d r r B s %     O.s a a e e e a e d q d r ; r r ; r q ; ; ; q q ; r q q P.  ",
"a.  ;.G o o ; ; r r q ; r G G G G p p o o o 3 Q. .o G G o o ; K       r ; ; r r ; ; ; ; r r ; r ; r r B B B e q ; ; ; r ; ; O.  ",
"N.  K z F F F n n n n n n n n n n n F G m 9.y.o o m ; ; ; ; m %     6 y y n F n n n n n F h p m o m p h F n n n F p m ; ; ; R.  ",
"2   l.O y z O y : E n y y E E E z z n G ; z G G p n z E : E n       & : E : : : E E E : : O N N N N N -.N N Y Y Y -.O O O z ^   ",
">.  _ A Z : Y Y Z A X X X Y Y Z Y Y Y Z Z Z Z Y Y N Y Z -.-.-.      a.-.-.O O O O O O O y y O -.Z A A Z Z Y Y Z Y Y y y Z : 3.  ",
"k   &.+.....+.+./ / '.].]././.{.].{.).'.'. . .X A A A N Z A A       !.Y Y Y Y Y Z Y Y X A A A X  . .` ..A +.....` ` `  .` X 6.  ",
"D.  U {./.].{.]./ / ]./._._.[.[.[._._._.(.(.(.[.H /./././.{.H       N.+.'.).'./ '.'.].)./ /./././ /.).).)./.).'.+.+.+.A +.'.u.  ",
"6   S.}.}.(.(.(.[._.[.[._._._._._.H H /._.[._._._././././.H 0.  .   v.(.v |.(.}.(.(.(.}.(.(.(.H [.[.[._._.[./._.[.[.}.{.].].w.  ",
"6   T.|.H }.v }.v (.v - < |.< < < < }.v }.}.}.}.{.{./.H H H x   I.  ~.2.:.:.:.- - - 2.2.- < |.< < < |.}.}.[.[.H /._._._.[.[.#.  ",
"B.  O.2.2.7.7.7.7.5.6.7.- 2.:.:.:.2.- - < < < < < H H [.- - C.  k I.  C.< < 2.6.5.:.v v |.|.|.|.|.|.v v }./././.< < - |.< < c   ",
"%   b.- - - < - - - 2.- - 2.- < - - - < v :.:.6.6.7.5.7.7.6.9.  .     :.:.:.:.:.|.|.|.|.6.6.}.7.7.= 5.(.5.= = 5.7.7.= = 6.|.#.  ",
"D.  ~.u { { 4.Q.J J =.^.c.E.e.P 6.6.C.c.c.c.G.a.a.d.g.u { 4.4.        R.d.E.U.= = < 7.(.- (.}.7.6.|.v 7.z.z.!.=.=.=.J G.=.u L.  ",
"j.                                                                              % v.>.$ % % K.K.L.@                             ",
"                                                                                                                                ",
"        q.o.o.& & 5 * ! ! ! J   L.t.  y.v |.|.v }.} } ~ 1 1 _                     _ & 3 * #.!   K   % |.|.< - * ! 4 4 1 & & w   ",
"9 0 0 a e s e e e a s d s s -   % D.   .s s s B s s s s s s e e e a a a a a a a e a a e e a /.  I.  T.0 8 9 8 8 8 8 9 8 8 7 8 8 ",
"e a a a a 9 0 e d q m ; ; m '.  t.t.   .a a a e B r ; ; d d q d d q d B s s s e a e s e 0 e ;       f.a e e d B d q q d q B e s ",
"d d q q d B B B d B d d d q /   I.j.  / ; m m ; ; ; m ; r r r r q q q q d q d s s e e a s r Z   +   w.d B d B q q d q d d ; q q ",
"; ; ; G o o G G o m G n h h /.  K.  ] E y O Y O -.y E z : E z n n n n n h F p h F F n n n h C.  .   w.h h h h F p h m ; o m G ; ",
"z z z z z : y E z z z n z E (.  j.  <.n n n z E : : -.-.Y N y -.y O -.N N O y O N O : O O O c   t.  z.n n z : y E y : z n n n z ",
"O O -.O y y y O : : z : : : v   ]   V.-.Y N y N N Y N -.O Y Y -.Y Y Y A A A Y O : : y O Z Z W.  B.  , Z A Y Y O O O O O z z z E ",
"X X  . .`  .A X O E A X X  .7.  ~.  , A A Z -.: : y y Y Y Z A  .A  .A A A X X X X ..A E : O W.  B.  E.X +.X Z O O N Y Y Z A X  .",
"/././.H H H H H /.{.H H /./.j   I.  ! ).+.+.Y Z Z -.N N O : O -.-.X  ./ +./.'.)./ +.Z O O O a.  %   ! ]./.H _._._._._._._._.[./.",
"'.+.+./ / / / ).)./._.(.[.}.1.  %   c +.+.+.+.'.+.+. .X X  ...+.+.'.'./ {././.{./.{.]./.{.).1.  %   1.{.H /.{.{.{.{.{.{./.{.).'.",
"[.}.[.[.[./.H H /./.{.{._._.N.  *.  G.v < < < - v }.< - }.(.|.}.].{.H |.- _.{.].(.(.[.[.H (.(   B.  G.}.v v < |.|.< |.2.< |.(.(.",
"[.[.[.}.}._.[.(.}.}.[.}.- < b.  o.  W.- < - < 2.2.- 2.2.2.:.2.:.2.- - - |.< < < |.< < < < - 3   l.  ^.< |.< - < |.|.v |._._.H [.",
"< < - - 2.6.v 7.6.6.7.6.(.v 5   X.  %.}.}.2.- - 6.2.2.2.2.2.< - < < < |.- 6.:.:.2.:.6.7.6.- N.  %   ! }.}.|.< |.< < [.[.(.}.(.|.",
"c.c.P 7.7.7.7.7.5.5.6.6.:.:.Y.  b.  % d.d.d.d.d.V.* =.=.d.a.U 4.4.4.=.d.=.^ c.j c.c.c.Z.=.=.%   ;.  ,.2.7.5.7.6.5.6.5.6.7.e.c.c."};
