/* XPM */
static char * wall2_xpm[] = {
"64 64 202 2",
"  	c #000000",
". 	c #070401",
"+ 	c #030200",
"@ 	c #080501",
"# 	c #040200",
"$ 	c #110902",
"% 	c #170D03",
"& 	c #130A02",
"* 	c #321B06",
"= 	c #63360D",
"- 	c #8E4C12",
"; 	c #945013",
"> 	c #BA6418",
", 	c #C76B19",
"' 	c #BB6518",
") 	c #69390D",
"! 	c #1F1104",
"~ 	c #7B4210",
"{ 	c #62350D",
"] 	c #58300B",
"^ 	c #261405",
"/ 	c #060301",
"( 	c #5F330C",
"_ 	c #A15715",
": 	c #4C290A",
"< 	c #201104",
"[ 	c #AF5F16",
"} 	c #955113",
"| 	c #8A4A12",
"1 	c #65370D",
"2 	c #5E330C",
"3 	c #331B06",
"4 	c #2C1806",
"5 	c #452509",
"6 	c #64360D",
"7 	c #3F2208",
"8 	c #100902",
"9 	c #62350C",
"0 	c #C66B19",
"a 	c #C56A19",
"b 	c #C46A19",
"c 	c #C36919",
"d 	c #C26919",
"e 	c #492809",
"f 	c #5C320C",
"g 	c #BD6618",
"h 	c #C06819",
"i 	c #C16819",
"j 	c #020100",
"k 	c #CA6D1A",
"l 	c #B56217",
"m 	c #C86C19",
"n 	c #C96C1A",
"o 	c #6D3B0E",
"p 	c #0D0702",
"q 	c #7F4410",
"r 	c #B96418",
"s 	c #B26017",
"t 	c #B86317",
"u 	c #B66217",
"v 	c #BC6618",
"w 	c #BC6518",
"x 	c #BF6718",
"y 	c #77400F",
"z 	c #251405",
"A 	c #975213",
"B 	c #0C0702",
"C 	c #894A11",
"D 	c #AE5E16",
"E 	c #B16017",
"F 	c #A95B16",
"G 	c #BE6718",
"H 	c #61340C",
"I 	c #854811",
"J 	c #B05F16",
"K 	c #B36117",
"L 	c #B46117",
"M 	c #B76317",
"N 	c #9C5414",
"O 	c #60340C",
"P 	c #4A2809",
"Q 	c #170C03",
"R 	c #120A02",
"S 	c #3E2108",
"T 	c #150B03",
"U 	c #7D4310",
"V 	c #AC5D16",
"W 	c #AD5E16",
"X 	c #864811",
"Y 	c #7C4310",
"Z 	c #562F0B",
"` 	c #4E2A0A",
" .	c #2D1806",
"..	c #271505",
"+.	c #261505",
"@.	c #7E4410",
"#.	c #A85B15",
"$.	c #AB5C16",
"%.	c #AA5C16",
"&.	c #A65A15",
"*.	c #A75A15",
"=.	c #A55915",
"-.	c #A45915",
";.	c #8F4D12",
">.	c #7A4210",
",.	c #68380D",
"'.	c #532D0B",
").	c #391F07",
"!.	c #291605",
"~.	c #231304",
"{.	c #482709",
"].	c #AD5D16",
"^.	c #0B0601",
"/.	c #1A0E03",
"(.	c #723E0F",
"_.	c #A25815",
":.	c #A35815",
"<.	c #A05714",
"[.	c #050301",
"}.	c #9E5614",
"|.	c #9F5614",
"1.	c #502B0A",
"2.	c #9E5514",
"3.	c #9D5514",
"4.	c #995313",
"5.	c #9B5414",
"6.	c #924F13",
"7.	c #2B1706",
"8.	c #9A5314",
"9.	c #985213",
"0.	c #965113",
"a.	c #512C0A",
"b.	c #935013",
"c.	c #79410F",
"d.	c #241305",
"e.	c #8F4E12",
"f.	c #914F13",
"g.	c #904E12",
"h.	c #733E0F",
"i.	c #824611",
"j.	c #8C4B12",
"k.	c #462609",
"l.	c #211204",
"m.	c #6C3A0E",
"n.	c #472709",
"o.	c #6E3B0E",
"p.	c #552E0B",
"q.	c #3A1F07",
"r.	c #3C2008",
"s.	c #442509",
"t.	c #5B310C",
"u.	c #76400F",
"v.	c #080401",
"w.	c #010100",
"x.	c #160C03",
"y.	c #804510",
"z.	c #8D4C12",
"A.	c #6A390E",
"B.	c #311A06",
"C.	c #442409",
"D.	c #180D03",
"E.	c #743F0F",
"F.	c #874911",
"G.	c #1C0F04",
"H.	c #0E0802",
"I.	c #844711",
"J.	c #1D1004",
"K.	c #713D0E",
"L.	c #422308",
"M.	c #834711",
"N.	c #6F3C0E",
"O.	c #3B2008",
"P.	c #140B03",
"Q.	c #814611",
"R.	c #0F0802",
"S.	c #6B3A0E",
"T.	c #67380D",
"U.	c #4B290A",
"V.	c #281605",
"W.	c #884911",
"X.	c #78410F",
"Y.	c #190E03",
"Z.	c #0A0601",
"`.	c #8B4B12",
" +	c #090501",
".+	c #1B0F03",
"++	c #66370D",
"@+	c #371E07",
"#+	c #2F1906",
"$+	c #351D07",
"%+	c #341C07",
"&+	c #361D07",
"*+	c #402208",
"=+	c #542E0B",
"-+	c #2A1705",
";+	c #381E07",
">+	c #703C0E",
",+	c #522C0A",
"'+	c #412308",
")+	c #2E1906",
"!+	c #572F0B",
"~+	c #59300B",
"                                .                                                               +                               ",
"@                                                           # $ .                                                               ",
"%   & * = = - ; > , ' ; )       ! ~ { = ] * * ^                 /   ( _ :       < [ } | 1 2 3 3     4 3 3 3 3 3 5 6 = 6 6 6 7   ",
"8   9 0 0 0 0 0 a a b c d e   f g a a 0 d c h h i 0 b c a a g   j   * , k l 6 &   2 m n m , , , , , , , , , , , 0 0 b b b b o   ",
"p   q > > r r r ' > > r r s } > t t u r > ' ' v v v w v v v x       / b d c i ' y z A i d d d a c b c b b b b 0 b b 0 0 0 0 =   ",
"B   C > r r > > r w w v g v ' ' v v v v v w ' ' w w w w v v D   + .   E g v w w > > F w ' w ' w w v v v v ' ' > > r r G x i H   ",
"$   I E J [ E E J J [ E E [ K K K L K L L l l M M t t N I O P   Q   R ' ' ' > ' > > t M M u l l u u L l l u u u u u l L K L S   ",
"T   U D J J J [ D J J E [ V V V W [ W W X Y Z `  .Q             !   ..D [ [ J J J J J J s s E s s J E s s s E s K E l K L s +.  ",
"Q   @.#.F $.%.%.%.$.%.F &.*.*.=.=.=.-.;.>.~ ,.'.'.).!.!.8       ~.  {.E J [ J J J J s E D D W ].W W V W W ].W W D ].].$.F V ^.  ",
"/.  (._ _._._._.:.:.-.:.:.=.&.<._ _ :.:._.=.&.*.#.*.=.&.*.*.T   !   '.#.=.-.-.-.-.=.=.-._.:.=.-.-.-._ _ _._._._._._._.:.:.&.[.  ",
"%   f *.#.=.&.=.&.=.=.=.-._._ _.-.-.<._ }.}._ _.<.|._._ |.N *   /.  1.<.<._.:.:.-._ _ _._._.:._.:.=.*.*.-.:._ _ _._ |.2.3.2.!.  ",
"$   7 N N N N N N N N N 3.3.2.2.}.}.2.3.3.2.2.2.}.N N 2.3.3.]   $   : 4.3.5.N }.2.6.}.2.2.|.|.|.<.<.|.|.}._ _ |.}.3.3.2.3.2.]   ",
"/   7.8.8.8.8.8.5.8.8.8.8.8.4.9.9.0.A A A A 4.4.A 4.4.9.4.8.~   .   ] 5.3.5.9.4.a.'.5.} b.} ; ; 4.} 5.5.A A A A A 0.} A 0.} c.  ",
"    d.e.b.6.f.e.f.6.f.f.f.g.g.;.f.f.g.g.f.g.f.N g.6.A N 3.0.|   #   ( } 0.0.h.<   q f.6.f.g.b.f.f.6.b.0.0.} 0.0.0.8.b.} 0.4.0.  ",
"    ^ 0.0.; ; 6.f.6.6.6.6.e.f.f.g.f.f.f.f.f.f.g.f.6.6.e.A 9.i.  j   ) 6.j.k.    l.0.9.9.9.4.9.0.0.0.} 0.A } } A 0.0.0.0.} 9.9.  ",
"    z f.;.| m.m.{ n.n.n.n.n.n.n.{.{.{.{.{.` o.m.p.n.{.q.d.d.!       % z R       z e {.e e {.{.e e e e e r.z z z z s.{.t.o.u.;.  ",
"    v.                                                                    +                                                     ",
"            w./ . ^.^..                   w.B x.$ ^.^.B B                                       B                               ",
"* * !                               P f 7.    @                   . * * ] = o.6.b.y.{ { = 7 B   Q   ! !           * * * * * * * ",
"d b b b b b J b.; 6.f.}.a a M   w.  f.b b z.!     A.; } N n m m , , , n k n n n n m , , , , B.  Q   c.a A P .     7.[ b a b d c ",
"b b c c c c i d i i i i d d 6.  #   j.v v w u 6 '.g G g g w v w g v w w w w g w w G G G i a C.  D.  c.d i h L E.&   B F.a a b b ",
"u u M M l l l u M M M t M M m.  v.  X M l t t M t u u l L L L u t t u u u u M u u M M u > > 5   G.  (.M u l l l #.C.    e W u M ",
"K E s K L u M u u l L u M M t.  H.  I.s K K E J [ [ J L u u u u r t u u u u u u t u u l u l ).  J.  K.u L M t M M M y ^.  ~.4.L ",
"E s E E s s K s J J J s s s L.  R   M.L l K J J ].[ J [ D D W V V E W W W W W W W D [ [ J E 4   G.  m.W W s ].W ].].[ 2.*   / N.",
"O.|.F $.$.%.$.$.$.$.$.$.W D 4   P.  Q.].W ].[ K K W W W ].V ].$.V ].].V V V ].].V #.F %.%.$.^   R   Q.W =.F F F F V V $.V H /   ",
"  y %.$.].V D ].].V V s %.F O.  R.  >.%.#.&.V V *.*.V %.%.=.=.=.&.F F %.&.:.-.=.=.=.=._._.<.T   G.  S.:.:._._._.V V -.-.=.=.| z ",
"T.3.3.3.2.3.2.}.3.3.3.3._._.:   P.  U.|._ <.F F F :._ |._ |.}.|.|.}.<.<.}.|.|.}.3.}.<.<.<.<.V.  l.  U.}.2.2._.2.3.2.3.3.2.2.3.9.",
"; ; } A 0.} A 9.0.0.0.; 4.8.f   Q   /.<.<.<._.:.:.:.-.&.=.&.&.F $.%.=.-.-.:.*.#.W.X.j._._ :.`   /.  B.A 0.A 0.A A 0.3.} 0.0.0.0.",
"b.N 3.0.9.} 0.A 2.5.5.|.N 3.h.  $ +   z.5.N 2.2.2.2.}.}.}.|.|.}.2.}.}.}.2.N 3.2.6.B.    [...Y.  R   Q } } ; ; b.b.b.} 0.; ; b.b.",
"b.6.6.; 6.6.f.b.b.6.; b.f.f.q   ^.[.  g.3.0.9.9.0.b.} ; 0.0.0.A 0.A b.; b.b.} 6.b.b.] [.        R.    6.6.6.; b.b.b.b.; b.; b.b.",
"f.f.e.g.e.e.; ; } ; b.6.6.6.o.  x.    g.e.f.f.e.e.e.g.g.g.g.e.e.e.;.e.e.g.4.f.6.; ; b.~ Q     Z.+.    0.; ; b.b.b.e.e.f.f.f.f.f.",
";.e.e.;.f.f.f.f.g.e.e.e.e.f.{   D.    d. .n.: m.o.`.m.m.{.{.V.z  +.+d.C.n.T.A.W.- N.S.'.C. +    G.    d.d.d.d.d.V.n.n.n.++S.A.I.",
"                                !                                                               p                               ",
"                                          #  +/ w.                                                                              ",
"<     ; b.- = = = 3 3 3 3 3 &                           a.= W.  w.      B * * * * * * 3 3 * * * * * s.{ { y.b.b.6.6.6.6.6.6.C.  ",
"@+    0 0 , , , 0 , , 0 , m 0 m m m m m , s ; A.    4 _ , m ,       = v v g g g g v v v g g G x x x x x h i i i d c c a a c e   ",
"k.    b c b c c d d d c b b i i i i i i d d s D.B 6 g w w G x R     #+x i i h h h i h g v g w ' w w ' w v ' > ' v v ' w v v $+  ",
"k.  ^.M t t > ' w w v ' w M M M M u u t t t 5 %+*.t M M t t > Q       w > ' w w ' > ' > w w ' w ' w w G G G h v > > > w > > #+  ",
"&+  Q E L L L K s K s K K K K K s s L M r i.M.t t r ' ' > ' r R     8 D D K L K s K K s L l u r t r u l L K K K L u r > > > *+  ",
"4   x.W D E W D [ J K D D J J J E E s M > E M M u s E J [ J s       * [ J [ [ [ J J J [ [ W V V V V V ].V V $.$.$.].W W W E (   ",
"/.  < F %.[ $.$.%.F #.#.#.$.$.%.$.$.$.%.%.%.%.$.$.V $.%.].].].      k.].].W W W W W W W D D W ].%.F F %.%.$.$.%.$.$.D D %.[ c.  ",
"p   !.-.=.=.-.:._ _ _.|.|.2.2.}.|.}.<._._.*.*.#.F F F V %.F F       =+$.$.$.$.$.%.$.$.#.F F F #.*.*.&.=.F -.=.=.&.&.&.*.&.#.f.  ",
"R.  V.}.2.|.}.|._ _ |.3.5.5.8.8.8.5.5.5.4.4.4.8.N 3.2.2.2.}.N       @+:._.<._._ _._.|.<._ 2.2.3._ 2.<.<.<.2.<._.-.:.-.F :._.I.  ",
"8   -+9.9.4.4.4.8.5.8.8.5.5.5.5.5.N N 2.5.8.5.5.5.3.3.3.3.N j.  .   J.4.A 0.4.9.4.4.4.9.4.4.4.N 8.8.8.5.5.8.3.5.8.8.9.}.|.|.K.  ",
"8   ;+0.N 9.A 9.A 4.A ; } 0.} } } } 9.A 9.9.9.9.}.}.2.N N N C   Z.  [.b.6.6.6.; ; ; b.b.; } 0.} } } 0.9.9.8.8.N 3.5.5.5.8.8.,.  ",
"P.  #+b.b.g.g.g.g.e.f.g.; b.6.6.6.b.; ; } } } } } N N 8.; ; Q.  p Z.  Q.} } b.f.e.6.A A 0.0.0.0.0.0.A A 9.3.3.3.} } ; 0.} } f   ",
"R   l.; ; ; } ; ; ; b.; ; b.; } ; ; ; } A 6.6.f.f.g.e.g.g.f.i.  .     6.6.6.6.6.0.0.0.0.f.f.9.g.g.;.e.4.e.;.;.e.g.g.;.;.f.0.,.  ",
"R.  [.z ^ ^ d.%+P P {.1.m.S.o.F.f.f.Q.m.m.m.U.k.k.n.q.z ^ d.d.        *+n.S.>+;.;.} g.4.; 4.9.g.f.0.A g.N.N.=+{.{.{.P U.{.z .+  ",
"v.                                                                              R J./.% R R  + +.+@                             ",
"                                                                                                                                ",
"        D.B.B.* * 7 = { { { P   .+H.  M.A 0.0.A 9.1 1 ] 3 3 <                     < * s.= ,.{   Q   & 0.0.} ; = { 6 6 3 * * B   ",
"b c c d h x h h h i x g x x ;   & R.  *.x x x G x x x x x x h h h d d d d i i i h i i h h i 2.  Z.  ;+c a b a a a a b a a 0 a a ",
"h i i i d b c h g v r > ' r _.  H.H.  *.i i d h G w > ' g g v g g v g G x x x h i h x h c h >       p.d h h g G g v v g v G h x ",
"g g v v g G G G g G g g g v _   Z.v.  _ > r r > ' > r ' w w w w v v v v g v g x x h h i x w %.  +   K.g G g G v v g v g g ' v v ",
"' ' > M t t M M t r M K l l 3.   +  / J D W $.W ].D J E [ J E K K K s K l L u l L L s s K l Q.  .   K.l l l l L u l r > t r M > ",
"E E E E E [ D J E E E s E J 4.  v.  7.s s s E J [ [ ].].$.V D ].D W ].V V W D W V W [ W W W f   H.  N.s s E [ D J D [ E s s s E ",
"W W ].W D D D W [ [ E [ [ [ A   /   ,+].$.V D V V $.V ].W $.$.].$.$.$.F F F $.W [ [ D W %.%.'+  P.  ) %.F $.$.W W W W W E E E J ",
"#.#.*.*.&.*.F #.W J F #.#.*.g.  [.  A.F F %.].[ [ D D $.$.%.F *.F *.F F F #.#.#.#.=.F J [ W '+  P.  S.#.:.#.%.W W V $.$.%.F #.*.",
"3.3.3.N N N N N 2.}.N N 3.3.o   Z.  { <.-.:.$.%.%.].V V W [ W ].].#.*._ :.2._.<._ -.%.W W W k.  R   { |.2.N 5.5.5.5.5.5.5.5.8.3.",
"_.:.:._ _ _ _ <.<.2.5.4.8.9.a.  &   t.:.:.:.:._.-.-.*.#.#.*.=.-.:._._._ }.2.2.}.3.}.|.2.}.<.a.  R   a.}.N 2.}.}.}.}.}.}.2.}.<._.",
"8.9.8.8.8.3.N N 3.2.}.}.5.5.&+  ~.  U.A } } } ; A 9.} ; 9.4.0.9.|.}.N 0.; 5.}.|.4.4.8.8.N 4.:   P.  U.9.A A } 0.0.} 0.b.} 0.4.4.",
"8.8.8.9.9.5.8.4.9.9.8.9.; } l.  B.  '+; } ; } b.b.; b.b.b.6.b.6.b.; ; ; 0.} } } 0.} } } } ; 5   x.  1.} 0.} ; } 0.0.A 0.5.5.N 8.",
"} } ; ; b.f.A g.f.f.g.f.4.A S   )+  ).9.9.b.; ; f.b.b.b.b.b.} ; } } } 0.; f.6.6.b.6.f.g.f.; @+  R   { 9.9.0.} 0.} } 8.8.4.9.4.0.",
"m.m.F.g.g.g.g.g.e.e.f.f.6.6.!+  l.  R n.n.n.n.n.,+= {.{.n.k.V.d.d.d.{.n.{.( m.o m.m.m.~+{.{.R   ^.  (.b.g.e.g.f.e.f.e.f.g.o.m.m."};
