/* XPM */
static char * wall3_xpm[] = {
"64 64 156 2",
"  	c #000000",
". 	c #010505",
"+ 	c #010202",
"@ 	c #020606",
"# 	c #010303",
"$ 	c #040C0C",
"% 	c #051111",
"& 	c #040D0D",
"* 	c #0B2323",
"= 	c #174646",
"- 	c #206464",
"; 	c #226969",
"> 	c #2A8383",
", 	c #2D8D8D",
"' 	c #2B8484",
") 	c #184A4A",
"! 	c #071616",
"~ 	c #1C5757",
"{ 	c #164646",
"] 	c #143E3E",
"^ 	c #091B1B",
"/ 	c #010404",
"( 	c #164343",
"_ 	c #257272",
": 	c #113636",
"< 	c #071717",
"[ 	c #287C7C",
"} 	c #226A6A",
"| 	c #1F6262",
"1 	c #174848",
"2 	c #154242",
"3 	c #0C2424",
"4 	c #0A1F1F",
"5 	c #103131",
"6 	c #174747",
"7 	c #0E2C2C",
"8 	c #040B0B",
"9 	c #164545",
"0 	c #2D8C8C",
"a 	c #2D8B8B",
"b 	c #2C8A8A",
"c 	c #2C8989",
"d 	c #113434",
"e 	c #154141",
"f 	c #2B8686",
"g 	c #2C8888",
"h 	c #000101",
"i 	c #2E8F8F",
"j 	c #298080",
"k 	c #2E8D8D",
"l 	c #2E8E8E",
"m 	c #194D4D",
"n 	c #030909",
"o 	c #1D5A5A",
"p 	c #297E7E",
"q 	c #2A8282",
"r 	c #298181",
"s 	c #2B8585",
"t 	c #2C8787",
"u 	c #1B5454",
"v 	c #081A1A",
"w 	c #226B6B",
"x 	c #1F6161",
"y 	c #287B7B",
"z 	c #287D7D",
"A 	c #267878",
"B 	c #2B8787",
"C 	c #164444",
"D 	c #1E5E5E",
"E 	c #297F7F",
"F 	c #2A8181",
"G 	c #246E6E",
"H 	c #051010",
"I 	c #050F0F",
"J 	c #1C5858",
"K 	c #277979",
"L 	c #1F5F5F",
"M 	c #143D3D",
"N 	c #123737",
"O 	c #0A2020",
"P 	c #091C1C",
"Q 	c #1D5959",
"R 	c #267777",
"S 	c #277878",
"T 	c #267676",
"U 	c #267575",
"V 	c #257474",
"W 	c #216565",
"X 	c #1C5656",
"Y 	c #133A3A",
"Z 	c #0D2828",
"` 	c #091D1D",
" .	c #081919",
"..	c #103333",
"+.	c #277A7A",
"@.	c #030808",
"#.	c #061313",
"$.	c #1A5151",
"%.	c #257373",
"&.	c #133B3B",
"*.	c #247070",
"=.	c #247171",
"-.	c #123838",
";.	c #246F6F",
">.	c #236C6C",
",.	c #236E6E",
"'.	c #216868",
").	c #236D6D",
"!.	c #123939",
"~.	c #226868",
"{.	c #216666",
"].	c #216767",
"^.	c #1A5252",
"/.	c #1E5C5C",
"(.	c #206363",
"_.	c #103232",
":.	c #194C4C",
"<.	c #194E4E",
"[.	c #133C3C",
"}.	c #0D2929",
"|.	c #0E2A2A",
"1.	c #103030",
"2.	c #154040",
"3.	c #020505",
"4.	c #1D5B5B",
"5.	c #184B4B",
"6.	c #0F3030",
"7.	c #061111",
"8.	c #1B5252",
"9.	c #1F6060",
"0.	c #061414",
"a.	c #030A0A",
"b.	c #071515",
"c.	c #1A5050",
"d.	c #0F2E2E",
"e.	c #1E5D5D",
"f.	c #0D2A2A",
"g.	c #040E0E",
"h.	c #030B0B",
"i.	c #184C4C",
"j.	c #184949",
"k.	c #113535",
"l.	c #1B5555",
"m.	c #061212",
"n.	c #020707",
"o.	c #206262",
"p.	c #0D2727",
"q.	c #0B2121",
"r.	c #0C2626",
"s.	c #0C2525",
"t.	c #0C2727",
"u.	c #0F2D2D",
"v.	c #0A1E1E",
"w.	c #194F4F",
"x.	c #0A2121",
"y.	c #143F3F",
"                                .                                                               +                               ",
"@                                                           # $ .                                                               ",
"%   & * = = - ; > , ' ; )       ! ~ { = ] * * ^                 /   ( _ :       < [ } | 1 2 3 3     4 3 3 3 3 3 5 6 = 6 6 6 7   ",
"8   9 0 0 0 0 0 a a a b c d   e f a a 0 c b g g c 0 a b a a f   h   * , i j 6 &   2 k l k , , , , , , , , , , , 0 0 a a a a m   ",
"n   o > > > > > ' > > > > p } > q q r > > ' ' s s s s s s s t       / a c b c ' u v w c c c c a b a b a a a a 0 a a 0 0 0 0 =   ",
"n   x > > > > > > s s s f s ' ' s s s s s s ' ' s s s s s s y   + .   z f s s s > > A s ' s ' s s s s s s ' ' > > > > B t c C   ",
"$   D z z [ z z z z [ z z [ E E E E E E E j j F F q q G D C d   H   & ' ' ' > ' > > q F F r j j r r E j j r r r r r j E E E 7   ",
"I   J y z z z [ y z z z [ K K K y [ y y L J M N O H             !   P y [ [ z z z z z z p p z p p z z p p p z p E z j E E p ^   ",
"H   Q R A K S S S K S A T T T U U U V W X ~ ) Y Y Z ` ` 8        .  ..z z [ z z z z p z y y y +.y y K y y +.y y y +.+.K A K @.  ",
"#.  $._ %.%.%.%.V V V V V U T _ _ _ V V %.U T T R T U T T T I   !   &.R U V V V V U U V %.V U V V V _ _ %.%.%.%.%.%.%.V V T #   ",
"%   e T R U T U T U U U V %._ %.V V _ _ *.*._ %._ =.%._ =.G *   #.  -._ _ %.V V V _ _ %.%.%.V %.V U T T V V _ _ %._ =.*.;.*.`   ",
"$   7 G G G G G G G G G ;.;.*.*.*.*.*.;.;.*.*.*.*.G G *.;.;.]   $   : >.;.,.G *.*.'.*.*.*.=.=.=._ _ =.=.*._ _ =.*.;.;.*.;.*.]   ",
"/   4 ).).).).).,.).).).).).>.>.>.} w w w w >.>.w >.>.>.>.).~   .   ] ,.;.,.>.>.!.Y ,.} ~.} ; ; >.} ,.,.w w w w w } } w } } X   ",
"     .{.~.'.].{.].'.].].].{.{.W ].].{.{.].{.].G {.'.w G ;.} |   #   ( } } } ^.<   o ].'.].{.~.].].'.~.} } } } } } ).~.} } >.}   ",
"    ^ } } ; ; '.].'.'.'.'.{.].].{.].].].].].].{.].'.'.{.w >./.  h   ) '.(._.    < } >.>.>.>.>.} } } } } w } } w } } } } } >.>.  ",
"    v ].W | :.:.{ _._._._._._._...........N <.:.[._...}. . .!       % v &       v d ..d d ....d d d d d |.v v v v 1...2.<.u W   ",
"    3.                                                                    +                                                     ",
"            h / . @.@..                   h n I $ @.@.n n                                       n                               ",
"* * !                               d e 4     @                   . * * ] = <.'.~.4.{ { = 7 n   H   ! !           * * * * * * * ",
"c a a a a a z ~.; '.].*.a a F   h   ].a a - !     5.; } G l k k , , , l i l l l l k , , , , *   H   X a w d .     4 [ a a a c b ",
"a a b b b b c c c c c c c c '.  #   (.s s s r 6 &.f B f f s s s f s s s s s f s s B B B c a 6.  7.  X c c g E 8.&   n 9.a a a a ",
"r r F F j j j r F F F q F F :.  3.  L F j q q F q r r j E E E r q q r r r r F r r F F r > > 5   0.  $.F r j j j R 6.    d y r F ",
"E z p E E r F r r j E r F F 2.  a.  D p E E z z [ [ z E r r r r > q r r r r r r q r r j r j Z   b.  c.r E F q F F F u @.   .>.E ",
"z p z z p p E p z z z p p p d.  &   e.E j E z z +.[ z [ y y y K K z y y y y y y y y [ [ z z 4   0.  :.y y p +.y +.+.[ *.*   / <.",
"f.=.A K K S K K K K K K y y 4   g.  /.+.y +.[ E E y y y +.K +.K K +.+.K K K +.+.K R A S S K ^   &   /.y U A A A A K K K K C /   ",
"  u S K +.K y +.+.K K p S A f.  h.  X S R T K K T T K S S U U U T A A S T V V U U U U %.%._ I   0.  i.V V %.%.%.K K V V U U | v ",
"j.;.;.;.*.;.*.*.;.;.;.;.%.%.:   g.  k.=._ _ A A A V _ =._ =.*.=.=.*._ _ *.=.=.*.;.*._ _ _ _ `   <   k.*.*.*.%.*.;.*.;.;.*.*.;.>.",
"; ; } w } } w >.} } } ; >.).e   H   #._ _ _ %.V V V V T U T T A K S U V V V T R 9.l.(.%._ V N   #.  * w } w } w w } ;.} } } } } ",
"~.G ;.} >.} } w *.,.,.=.G ;.^.  $ +   - ,.G *.*.*.*.*.*.*.=.=.*.*.*.*.*.*.G ;.*.'.*     # P m.  &   H } } ; ; ~.~.~.} } ; ; ~.~.",
"~.'.'.; '.'.].~.~.'.; ~.].].o   @.#   {.;.} >.>.} ~.} ; } } } w } w ~.; ~.~.} '.~.~.] #         h.    '.'.'.; ~.~.~.~.; ~.; ~.~.",
"].].{.{.{.{.; ; } ; ~.'.'.'.<.  I     {.{.].].{.{.{.{.{.{.{.{.{.{.W {.{.{.>.].'.; ; ~.~ H     n.^     } ; ; ~.~.~.{.{.].].].].].",
"W {.{.W ].].].].{.{.{.{.{.].{   7.     .O _.: :.<.o.:.:.....` v n.#. .6._.j.5.9.- <.i.&.6.n.    0.     . . . . .` _._._.1 i.5.D ",
"                                !                                                               n                               ",
"                                          # n./ h                                                                               ",
"<     ; ~.- = = = 3 3 3 3 3 &                           !.= 9.  h       n * * * * * * 3 3 * * * * * 1.{ { 4.~.~.'.'.'.'.'.'.6.  ",
"p.    0 0 , , , 0 , , 0 , k 0 k k k k k , p ; 5.    4 _ , k ,       = s s f f f f s s s f f B t t t t t g c c c c b b a a b d   ",
"_.    a b a b b c c c b a a c c c c c c c c p 7.n 6 f s s B t &     q.t c c g g g c g f s f s ' s s ' s s ' > ' s s ' s s s r.  ",
"_.  @.F q q > ' s s s ' s F F F F r r q q q 5 s.T q F F q q > H       s > ' s s ' > ' > s s ' s ' s s B B B g s > > > s > > q.  ",
"t.  H z E E E E p E p E E E E E p p E F > /.e.q q > ' ' > ' > &     8 y y E E E p E E p E j r > q > r j E E E E E r > > > > u.  ",
"4   I y y z y y [ z E y y z z z z z p F > z F F r p z z [ z p       * [ z [ [ [ z z z [ [ y K K K K K +.K K K K K +.y y y z (   ",
"#.  < A S [ K K S A R R R K K S K K K S S S S K K K K S +.+.+.      _.+.+.y y y y y y y y y y +.S A A S S K K S K K y y S [ X   ",
"n   ` V U U V V _ _ %.=.=.*.*.*.=.*._ %.%.T T R A A A K S A A       [.K K K K K S K K R A A A R T T T U A V U U T T T T T R ].  ",
"h.  ` *.*.=.*.=._ _ =.;.,.,.).).).,.,.,.>.>.>.).G ;.*.*.*.*.G       p.V %._ %._ %.%.=._ _ *.*.;._ *._ _ _ *._ %.V V V A V %.D   ",
"8   v.>.>.>.>.>.).,.).).,.,.,.,.,.G G *.,.).,.,.,.;.;.;.;.G (.  .   b.>.w } >.>.>.>.>.>.>.>.>.G ).).).,.,.).;.,.).).>.*.=.=.c.  ",
"8   Z } G >.w >.w >.w ; } } } } } } >.w >.>.>.>.*.*.*.G G G x   n.  # ~.'.'.'.; ; ; ~.~.; } } } } } } >.>.).).G ;.,.,.,.).).)   ",
"g.  q.~.~.{.{.{.{.{.].{.; ~.'.'.'.~.; ; } } } } } G G ).; ; /.  n n.  /.} } ~.].{.'.w w } } } } } } w w >.;.;.;.} } ; } } } e   ",
"&   < ; ; ; } ; ; ; ~.; ; ~.; } ; ; ; } w '.'.].].{.{.{.{.]./.  .     '.'.'.'.'.} } } } ].].>.{.{.W {.>.{.W W {.{.{.W W ].} )   ",
"h.  # v ^ ^  .s.d d ..-.:.i.<.9.].]./.:.:.:.k._._._.}.v ^  . .        u._.i.w.W W } {.>.; >.>.{.].} w {.<.<.[.......d k...v #.  ",
"3.                                                                              & b.#.% & & n.n.#.@                             ",
"                                                                                                                                ",
"        7.* * * * 7 = { { { d   #.a.  e.w } } w >.1 1 ] 3 3 <                     < * 1.= ) {   H   & } } } ; = { 6 6 3 * * n   ",
"a b b c g t g g g c t f t t ;   & h.  T t t t B t t t t t t g g g c c c c c c c g c c g g c *.  n.  Z b a a a a a a a a a 0 a a ",
"g c c c c a b g f s > > ' > %.  a.a.  T c c c g B s > ' f f s f f s f B t t t g c g t g b g >       [.c g g f B f s s f s B g t ",
"f f s s f B B B f B f f f s _   n.3.  _ > > > > ' > > ' s s s s s s s s f s f t t g g c t s S   +   c.f B f B s s f s f f ' s s ",
"' ' > F q q F F q > F E j j ;.  n.  / z y y K y +.y z z [ z z E E E p E j E r j E E p p E j /.  .   c.j j j j E r j > > q > F > ",
"z z z z z [ y z z z z p z z >.  3.  4 p p p z z [ [ +.+.K K y +.y y +.K K y y y K y [ y y y e   a.  <.p p z [ y z y [ z p p p z ",
"y y +.y y y y y [ [ z [ [ [ w   /   Y +.K K y K K K K +.y K K +.K K K A A A K y [ [ y y S S d.  g.  ) S A K K y y y y y z z z z ",
"R R T T T T A R y z A R R T {.  #   5.A A S +.[ [ y y K K S A T A T A A A R R R R U A z [ y d.  g.  i.R V R S y y K K K S A R T ",
";.;.;.G G G G G *.*.G G ;.;.m   n.  { _ V V K S S +.K K y [ y +.+.R T _ V *.%._ _ V S y y y _.  &   { =.*.G ,.,.,.,.,.,.,.,.).;.",
"%.V V _ _ _ _ _ _ *.,.>.).>.!.  &   2.V V V V %.V V T R R T U V V %.%._ *.*.*.*.;.*.=.*.*._ !.  &   !.*.G *.*.*.*.*.*.*.*.*._ %.",
").>.).).).;.G G ;.*.*.*.,.,.t.   .  k.w } } } ; w >.} ; >.>.} >.=.*.G } ; ,.*.=.>.>.).).G >.:   g.  k.>.w w } } } } } ~.} } >.>.",
").).).>.>.,.).>.>.>.).>.; } <   *   d.; } ; } ~.~.; ~.~.~.'.~.'.~.; ; ; } } } } } } } } } ; 5   I   -.} } } ; } } } w } ,.,.G ).",
"} } ; ; ~.].w {.].].{.].>.w 7   x.  Z >.>.~.; ; ].~.~.~.~.~.} ; } } } } ; ].'.'.~.'.].{.].; p.  &   { >.>.} } } } } ).).>.>.>.} ",
":.:.9.{.{.{.{.{.{.{.].].'.'.]   <   & _._._._._.Y = ...._._.`  . . ..._...( :.m :.:.:.y.....&   @.  $.~.{.{.{.].{.].{.].{.<.:.:."};
